<mxfile host="app.diagrams.net" agent="Mozilla/5.0 (Windows NT 10.0; Win64; x64) AppleWebKit/537.36 (KHTML, like Gecko) Chrome/132.0.0.0 Safari/537.36" version="26.0.6">
  <diagram id="C5RBs43oDa-KdzZeNtuy" name="Page-1">
    <mxGraphModel dx="1563" dy="613" grid="1" gridSize="10" guides="1" tooltips="1" connect="1" arrows="1" fold="1" page="1" pageScale="1" pageWidth="827" pageHeight="1169" math="0" shadow="0">
      <root>
        <mxCell id="WIyWlLk6GJQsqaUBKTNV-0" />
        <mxCell id="WIyWlLk6GJQsqaUBKTNV-1" parent="WIyWlLk6GJQsqaUBKTNV-0" />
        <mxCell id="WIyWlLk6GJQsqaUBKTNV-2" value="" style="rounded=0;html=1;jettySize=auto;orthogonalLoop=1;fontSize=11;endArrow=block;endFill=0;endSize=8;strokeWidth=1;shadow=0;labelBackgroundColor=none;edgeStyle=orthogonalEdgeStyle;" parent="WIyWlLk6GJQsqaUBKTNV-1" source="WIyWlLk6GJQsqaUBKTNV-3" target="WIyWlLk6GJQsqaUBKTNV-6" edge="1">
          <mxGeometry relative="1" as="geometry" />
        </mxCell>
        <mxCell id="WIyWlLk6GJQsqaUBKTNV-3" value="user signup" style="rounded=1;whiteSpace=wrap;html=1;fontSize=12;glass=0;strokeWidth=1;shadow=0;" parent="WIyWlLk6GJQsqaUBKTNV-1" vertex="1">
          <mxGeometry x="160" y="80" width="120" height="40" as="geometry" />
        </mxCell>
        <mxCell id="WIyWlLk6GJQsqaUBKTNV-4" value="Yes" style="rounded=0;html=1;jettySize=auto;orthogonalLoop=1;fontSize=11;endArrow=block;endFill=0;endSize=8;strokeWidth=1;shadow=0;labelBackgroundColor=none;edgeStyle=orthogonalEdgeStyle;" parent="WIyWlLk6GJQsqaUBKTNV-1" source="WIyWlLk6GJQsqaUBKTNV-6" target="SKW4Y77RdyxDhDGYhOk_-11" edge="1">
          <mxGeometry y="20" relative="1" as="geometry">
            <mxPoint as="offset" />
          </mxGeometry>
        </mxCell>
        <mxCell id="WIyWlLk6GJQsqaUBKTNV-5" value="No" style="edgeStyle=orthogonalEdgeStyle;rounded=0;html=1;jettySize=auto;orthogonalLoop=1;fontSize=11;endArrow=block;endFill=0;endSize=8;strokeWidth=1;shadow=0;labelBackgroundColor=none;" parent="WIyWlLk6GJQsqaUBKTNV-1" source="WIyWlLk6GJQsqaUBKTNV-6" target="WIyWlLk6GJQsqaUBKTNV-7" edge="1">
          <mxGeometry y="10" relative="1" as="geometry">
            <mxPoint as="offset" />
          </mxGeometry>
        </mxCell>
        <mxCell id="WIyWlLk6GJQsqaUBKTNV-6" value="new" style="rhombus;whiteSpace=wrap;html=1;shadow=0;fontFamily=Helvetica;fontSize=12;align=center;strokeWidth=1;spacing=6;spacingTop=-4;" parent="WIyWlLk6GJQsqaUBKTNV-1" vertex="1">
          <mxGeometry x="170" y="170" width="100" height="80" as="geometry" />
        </mxCell>
        <mxCell id="WIyWlLk6GJQsqaUBKTNV-7" value="error" style="rounded=1;whiteSpace=wrap;html=1;fontSize=12;glass=0;strokeWidth=1;shadow=0;" parent="WIyWlLk6GJQsqaUBKTNV-1" vertex="1">
          <mxGeometry x="320" y="190" width="120" height="40" as="geometry" />
        </mxCell>
        <mxCell id="SKW4Y77RdyxDhDGYhOk_-14" style="edgeStyle=none;curved=1;rounded=0;orthogonalLoop=1;jettySize=auto;html=1;fontSize=12;startSize=8;endSize=8;entryX=1;entryY=0.5;entryDx=0;entryDy=0;exitX=0;exitY=0.5;exitDx=0;exitDy=0;" edge="1" parent="WIyWlLk6GJQsqaUBKTNV-1" source="SKW4Y77RdyxDhDGYhOk_-11" target="SKW4Y77RdyxDhDGYhOk_-16">
          <mxGeometry relative="1" as="geometry">
            <mxPoint y="260" as="targetPoint" />
          </mxGeometry>
        </mxCell>
        <mxCell id="SKW4Y77RdyxDhDGYhOk_-11" value="get user data (ip ,...)" style="rounded=1;whiteSpace=wrap;html=1;fontSize=12;glass=0;strokeWidth=1;shadow=0;" vertex="1" parent="WIyWlLk6GJQsqaUBKTNV-1">
          <mxGeometry x="160" y="280" width="120" height="40" as="geometry" />
        </mxCell>
        <mxCell id="SKW4Y77RdyxDhDGYhOk_-28" style="edgeStyle=none;curved=1;rounded=0;orthogonalLoop=1;jettySize=auto;html=1;entryX=0.5;entryY=0;entryDx=0;entryDy=0;fontSize=12;startSize=8;endSize=8;" edge="1" parent="WIyWlLk6GJQsqaUBKTNV-1" source="SKW4Y77RdyxDhDGYhOk_-13" target="SKW4Y77RdyxDhDGYhOk_-27">
          <mxGeometry relative="1" as="geometry" />
        </mxCell>
        <mxCell id="SKW4Y77RdyxDhDGYhOk_-13" value="send email" style="rounded=1;whiteSpace=wrap;html=1;fontSize=12;glass=0;strokeWidth=1;shadow=0;" vertex="1" parent="WIyWlLk6GJQsqaUBKTNV-1">
          <mxGeometry x="160" y="360" width="120" height="40" as="geometry" />
        </mxCell>
        <mxCell id="SKW4Y77RdyxDhDGYhOk_-20" style="edgeStyle=none;curved=1;rounded=0;orthogonalLoop=1;jettySize=auto;html=1;fontSize=12;startSize=8;endSize=8;" edge="1" parent="WIyWlLk6GJQsqaUBKTNV-1" source="SKW4Y77RdyxDhDGYhOk_-16" target="SKW4Y77RdyxDhDGYhOk_-17">
          <mxGeometry relative="1" as="geometry" />
        </mxCell>
        <mxCell id="SKW4Y77RdyxDhDGYhOk_-16" value="save user in the db&lt;br&gt;status pending" style="rounded=1;whiteSpace=wrap;html=1;fontSize=12;glass=0;strokeWidth=1;shadow=0;" vertex="1" parent="WIyWlLk6GJQsqaUBKTNV-1">
          <mxGeometry x="-120" y="240" width="120" height="40" as="geometry" />
        </mxCell>
        <mxCell id="SKW4Y77RdyxDhDGYhOk_-21" style="edgeStyle=none;curved=1;rounded=0;orthogonalLoop=1;jettySize=auto;html=1;fontSize=12;startSize=8;endSize=8;" edge="1" parent="WIyWlLk6GJQsqaUBKTNV-1" source="SKW4Y77RdyxDhDGYhOk_-17" target="SKW4Y77RdyxDhDGYhOk_-18">
          <mxGeometry relative="1" as="geometry" />
        </mxCell>
        <mxCell id="SKW4Y77RdyxDhDGYhOk_-17" value="save 2FA attempt in db" style="rounded=1;whiteSpace=wrap;html=1;fontSize=12;glass=0;strokeWidth=1;shadow=0;" vertex="1" parent="WIyWlLk6GJQsqaUBKTNV-1">
          <mxGeometry x="-280" y="240" width="120" height="40" as="geometry" />
        </mxCell>
        <mxCell id="SKW4Y77RdyxDhDGYhOk_-22" style="edgeStyle=none;curved=1;rounded=0;orthogonalLoop=1;jettySize=auto;html=1;fontSize=12;startSize=8;endSize=8;" edge="1" parent="WIyWlLk6GJQsqaUBKTNV-1" source="SKW4Y77RdyxDhDGYhOk_-18" target="SKW4Y77RdyxDhDGYhOk_-19">
          <mxGeometry relative="1" as="geometry" />
        </mxCell>
        <mxCell id="SKW4Y77RdyxDhDGYhOk_-18" value="encrypt JSON obj with the browser details" style="rounded=1;whiteSpace=wrap;html=1;fontSize=12;glass=0;strokeWidth=1;shadow=0;" vertex="1" parent="WIyWlLk6GJQsqaUBKTNV-1">
          <mxGeometry x="-280" y="320" width="120" height="40" as="geometry" />
        </mxCell>
        <mxCell id="SKW4Y77RdyxDhDGYhOk_-23" style="edgeStyle=none;curved=1;rounded=0;orthogonalLoop=1;jettySize=auto;html=1;fontSize=12;startSize=8;endSize=8;entryX=0;entryY=0.5;entryDx=0;entryDy=0;" edge="1" parent="WIyWlLk6GJQsqaUBKTNV-1" source="SKW4Y77RdyxDhDGYhOk_-19" target="SKW4Y77RdyxDhDGYhOk_-11">
          <mxGeometry relative="1" as="geometry">
            <mxPoint x="120" y="340" as="targetPoint" />
          </mxGeometry>
        </mxCell>
        <mxCell id="SKW4Y77RdyxDhDGYhOk_-26" style="edgeStyle=none;curved=1;rounded=0;orthogonalLoop=1;jettySize=auto;html=1;entryX=0;entryY=0.5;entryDx=0;entryDy=0;fontSize=12;startSize=8;endSize=8;" edge="1" parent="WIyWlLk6GJQsqaUBKTNV-1" source="SKW4Y77RdyxDhDGYhOk_-19" target="SKW4Y77RdyxDhDGYhOk_-13">
          <mxGeometry relative="1" as="geometry" />
        </mxCell>
        <mxCell id="SKW4Y77RdyxDhDGYhOk_-19" value="saves device token in the local storage" style="rounded=1;whiteSpace=wrap;html=1;fontSize=12;glass=0;strokeWidth=1;shadow=0;" vertex="1" parent="WIyWlLk6GJQsqaUBKTNV-1">
          <mxGeometry x="-120" y="320" width="120" height="40" as="geometry" />
        </mxCell>
        <mxCell id="SKW4Y77RdyxDhDGYhOk_-30" style="edgeStyle=none;curved=1;rounded=0;orthogonalLoop=1;jettySize=auto;html=1;entryX=0.5;entryY=0;entryDx=0;entryDy=0;fontSize=12;startSize=8;endSize=8;" edge="1" parent="WIyWlLk6GJQsqaUBKTNV-1" source="SKW4Y77RdyxDhDGYhOk_-27" target="SKW4Y77RdyxDhDGYhOk_-29">
          <mxGeometry relative="1" as="geometry" />
        </mxCell>
        <mxCell id="SKW4Y77RdyxDhDGYhOk_-27" value="user enter email" style="rounded=1;whiteSpace=wrap;html=1;fontSize=12;glass=0;strokeWidth=1;shadow=0;" vertex="1" parent="WIyWlLk6GJQsqaUBKTNV-1">
          <mxGeometry x="160" y="440" width="120" height="40" as="geometry" />
        </mxCell>
        <mxCell id="SKW4Y77RdyxDhDGYhOk_-32" style="edgeStyle=none;curved=1;rounded=0;orthogonalLoop=1;jettySize=auto;html=1;entryX=1;entryY=0.5;entryDx=0;entryDy=0;fontSize=12;startSize=8;endSize=8;" edge="1" parent="WIyWlLk6GJQsqaUBKTNV-1" source="SKW4Y77RdyxDhDGYhOk_-29" target="SKW4Y77RdyxDhDGYhOk_-31">
          <mxGeometry relative="1" as="geometry" />
        </mxCell>
        <mxCell id="SKW4Y77RdyxDhDGYhOk_-29" value="user open image tag" style="rounded=1;whiteSpace=wrap;html=1;fontSize=12;glass=0;strokeWidth=1;shadow=0;" vertex="1" parent="WIyWlLk6GJQsqaUBKTNV-1">
          <mxGeometry x="160" y="520" width="120" height="40" as="geometry" />
        </mxCell>
        <mxCell id="SKW4Y77RdyxDhDGYhOk_-56" style="edgeStyle=none;curved=1;rounded=0;orthogonalLoop=1;jettySize=auto;html=1;fontSize=12;startSize=8;endSize=8;" edge="1" parent="WIyWlLk6GJQsqaUBKTNV-1" source="SKW4Y77RdyxDhDGYhOk_-31" target="SKW4Y77RdyxDhDGYhOk_-33">
          <mxGeometry relative="1" as="geometry" />
        </mxCell>
        <mxCell id="SKW4Y77RdyxDhDGYhOk_-31" value="GET /api/img" style="rounded=1;whiteSpace=wrap;html=1;fontSize=12;glass=0;strokeWidth=1;shadow=0;" vertex="1" parent="WIyWlLk6GJQsqaUBKTNV-1">
          <mxGeometry x="-120" y="480" width="120" height="40" as="geometry" />
        </mxCell>
        <mxCell id="SKW4Y77RdyxDhDGYhOk_-57" style="edgeStyle=none;curved=1;rounded=0;orthogonalLoop=1;jettySize=auto;html=1;fontSize=12;startSize=8;endSize=8;" edge="1" parent="WIyWlLk6GJQsqaUBKTNV-1" source="SKW4Y77RdyxDhDGYhOk_-33" target="SKW4Y77RdyxDhDGYhOk_-34">
          <mxGeometry relative="1" as="geometry" />
        </mxCell>
        <mxCell id="SKW4Y77RdyxDhDGYhOk_-33" value="ip lookup" style="rounded=1;whiteSpace=wrap;html=1;fontSize=12;glass=0;strokeWidth=1;shadow=0;" vertex="1" parent="WIyWlLk6GJQsqaUBKTNV-1">
          <mxGeometry x="-280" y="480" width="120" height="40" as="geometry" />
        </mxCell>
        <mxCell id="SKW4Y77RdyxDhDGYhOk_-58" style="edgeStyle=none;curved=1;rounded=0;orthogonalLoop=1;jettySize=auto;html=1;fontSize=12;startSize=8;endSize=8;" edge="1" parent="WIyWlLk6GJQsqaUBKTNV-1" source="SKW4Y77RdyxDhDGYhOk_-34" target="SKW4Y77RdyxDhDGYhOk_-36">
          <mxGeometry relative="1" as="geometry" />
        </mxCell>
        <mxCell id="SKW4Y77RdyxDhDGYhOk_-34" value="check if browser ip and email ip GET img same" style="rounded=1;whiteSpace=wrap;html=1;fontSize=12;glass=0;strokeWidth=1;shadow=0;" vertex="1" parent="WIyWlLk6GJQsqaUBKTNV-1">
          <mxGeometry x="-440" y="480" width="120" height="40" as="geometry" />
        </mxCell>
        <mxCell id="SKW4Y77RdyxDhDGYhOk_-38" style="edgeStyle=none;curved=1;rounded=0;orthogonalLoop=1;jettySize=auto;html=1;entryX=0;entryY=0.5;entryDx=0;entryDy=0;fontSize=12;startSize=8;endSize=8;" edge="1" parent="WIyWlLk6GJQsqaUBKTNV-1" source="SKW4Y77RdyxDhDGYhOk_-36" target="SKW4Y77RdyxDhDGYhOk_-37">
          <mxGeometry relative="1" as="geometry" />
        </mxCell>
        <mxCell id="SKW4Y77RdyxDhDGYhOk_-39" value="yes" style="edgeLabel;html=1;align=center;verticalAlign=middle;resizable=0;points=[];fontSize=12;" vertex="1" connectable="0" parent="SKW4Y77RdyxDhDGYhOk_-38">
          <mxGeometry x="-0.0705" relative="1" as="geometry">
            <mxPoint y="-1" as="offset" />
          </mxGeometry>
        </mxCell>
        <mxCell id="SKW4Y77RdyxDhDGYhOk_-41" style="edgeStyle=none;curved=1;rounded=0;orthogonalLoop=1;jettySize=auto;html=1;entryX=0;entryY=0.5;entryDx=0;entryDy=0;fontSize=12;startSize=8;endSize=8;" edge="1" parent="WIyWlLk6GJQsqaUBKTNV-1" source="SKW4Y77RdyxDhDGYhOk_-36" target="SKW4Y77RdyxDhDGYhOk_-40">
          <mxGeometry relative="1" as="geometry" />
        </mxCell>
        <mxCell id="SKW4Y77RdyxDhDGYhOk_-42" value="no" style="edgeLabel;html=1;align=center;verticalAlign=middle;resizable=0;points=[];fontSize=12;" vertex="1" connectable="0" parent="SKW4Y77RdyxDhDGYhOk_-41">
          <mxGeometry x="0.0447" y="2" relative="1" as="geometry">
            <mxPoint x="-1" as="offset" />
          </mxGeometry>
        </mxCell>
        <mxCell id="SKW4Y77RdyxDhDGYhOk_-36" value="if same" style="rhombus;whiteSpace=wrap;html=1;shadow=0;fontFamily=Helvetica;fontSize=12;align=center;strokeWidth=1;spacing=6;spacingTop=-4;" vertex="1" parent="WIyWlLk6GJQsqaUBKTNV-1">
          <mxGeometry x="-430" y="560" width="100" height="80" as="geometry" />
        </mxCell>
        <mxCell id="SKW4Y77RdyxDhDGYhOk_-47" style="edgeStyle=none;curved=1;rounded=0;orthogonalLoop=1;jettySize=auto;html=1;fontSize=12;startSize=8;endSize=8;" edge="1" parent="WIyWlLk6GJQsqaUBKTNV-1" source="SKW4Y77RdyxDhDGYhOk_-37" target="SKW4Y77RdyxDhDGYhOk_-45">
          <mxGeometry relative="1" as="geometry" />
        </mxCell>
        <mxCell id="SKW4Y77RdyxDhDGYhOk_-37" value="validate verification code" style="rounded=1;whiteSpace=wrap;html=1;fontSize=12;glass=0;strokeWidth=1;shadow=0;" vertex="1" parent="WIyWlLk6GJQsqaUBKTNV-1">
          <mxGeometry x="-280" y="560" width="120" height="40" as="geometry" />
        </mxCell>
        <mxCell id="SKW4Y77RdyxDhDGYhOk_-48" style="edgeStyle=none;curved=1;rounded=0;orthogonalLoop=1;jettySize=auto;html=1;fontSize=12;startSize=8;endSize=8;" edge="1" parent="WIyWlLk6GJQsqaUBKTNV-1" source="SKW4Y77RdyxDhDGYhOk_-40" target="SKW4Y77RdyxDhDGYhOk_-46">
          <mxGeometry relative="1" as="geometry" />
        </mxCell>
        <mxCell id="SKW4Y77RdyxDhDGYhOk_-40" value="invalidate verification code" style="rounded=1;whiteSpace=wrap;html=1;fontSize=12;glass=0;strokeWidth=1;shadow=0;" vertex="1" parent="WIyWlLk6GJQsqaUBKTNV-1">
          <mxGeometry x="-280" y="640" width="120" height="40" as="geometry" />
        </mxCell>
        <mxCell id="SKW4Y77RdyxDhDGYhOk_-53" style="edgeStyle=none;curved=1;rounded=0;orthogonalLoop=1;jettySize=auto;html=1;fontSize=12;startSize=8;endSize=8;" edge="1" parent="WIyWlLk6GJQsqaUBKTNV-1" source="SKW4Y77RdyxDhDGYhOk_-45" target="SKW4Y77RdyxDhDGYhOk_-52">
          <mxGeometry relative="1" as="geometry" />
        </mxCell>
        <mxCell id="SKW4Y77RdyxDhDGYhOk_-45" value="user enter code" style="rounded=1;whiteSpace=wrap;html=1;fontSize=12;glass=0;strokeWidth=1;shadow=0;" vertex="1" parent="WIyWlLk6GJQsqaUBKTNV-1">
          <mxGeometry x="-120" y="560" width="120" height="40" as="geometry" />
        </mxCell>
        <mxCell id="SKW4Y77RdyxDhDGYhOk_-55" style="edgeStyle=none;curved=1;rounded=0;orthogonalLoop=1;jettySize=auto;html=1;fontSize=12;startSize=8;endSize=8;" edge="1" parent="WIyWlLk6GJQsqaUBKTNV-1" source="SKW4Y77RdyxDhDGYhOk_-46" target="SKW4Y77RdyxDhDGYhOk_-54">
          <mxGeometry relative="1" as="geometry" />
        </mxCell>
        <mxCell id="SKW4Y77RdyxDhDGYhOk_-60" style="edgeStyle=none;curved=1;rounded=0;orthogonalLoop=1;jettySize=auto;html=1;entryX=1;entryY=0.5;entryDx=0;entryDy=0;fontSize=12;startSize=8;endSize=8;" edge="1" parent="WIyWlLk6GJQsqaUBKTNV-1" source="SKW4Y77RdyxDhDGYhOk_-46" target="SKW4Y77RdyxDhDGYhOk_-59">
          <mxGeometry relative="1" as="geometry" />
        </mxCell>
        <mxCell id="SKW4Y77RdyxDhDGYhOk_-46" value="user enter code" style="rounded=1;whiteSpace=wrap;html=1;fontSize=12;glass=0;strokeWidth=1;shadow=0;" vertex="1" parent="WIyWlLk6GJQsqaUBKTNV-1">
          <mxGeometry x="-120" y="640" width="120" height="40" as="geometry" />
        </mxCell>
        <mxCell id="SKW4Y77RdyxDhDGYhOk_-52" value="user enter the app" style="rounded=1;whiteSpace=wrap;html=1;fontSize=12;glass=0;strokeWidth=1;shadow=0;" vertex="1" parent="WIyWlLk6GJQsqaUBKTNV-1">
          <mxGeometry x="160" y="600" width="120" height="40" as="geometry" />
        </mxCell>
        <mxCell id="SKW4Y77RdyxDhDGYhOk_-54" value="error" style="rounded=1;whiteSpace=wrap;html=1;fontSize=12;glass=0;strokeWidth=1;shadow=0;" vertex="1" parent="WIyWlLk6GJQsqaUBKTNV-1">
          <mxGeometry x="-120" y="720" width="120" height="40" as="geometry" />
        </mxCell>
        <mxCell id="SKW4Y77RdyxDhDGYhOk_-59" value="Flag incident" style="rounded=1;whiteSpace=wrap;html=1;fontSize=12;glass=0;strokeWidth=1;shadow=0;" vertex="1" parent="WIyWlLk6GJQsqaUBKTNV-1">
          <mxGeometry x="-280" y="720" width="120" height="40" as="geometry" />
        </mxCell>
      </root>
    </mxGraphModel>
  </diagram>
</mxfile>
